<svg width="46" height="46" viewBox="0 0 46 46" fill="none" xmlns="http://www.w3.org/2000/svg">
<g clip-path="url(#clip0_14_101)">
<path d="M28.7689 22.5454L32.9007 20.5H46.6667L44.6212 16.4091H36.5007L41.3894 9.925L39.3644 5.83409L31.0598 16.8182L26.928 18.8841L27.7462 14.3636L36.0917 3.35909L31.6121 2.54091L24.1667 12.3182L16.803 2.5L12.303 3.31818L20.6076 14.3636L21.4257 18.8841L17.6621 17.0023L17.3348 16.8386L9.03029 5.77273L6.98484 9.86363L11.8939 16.4091H3.71211L1.66666 20.5H15.5144L19.5644 22.5454L15.4326 24.5909H1.66666L3.71211 28.6818H11.8326L6.94393 35.1659L8.96893 39.2568L17.2735 28.2727L21.4053 26.2068L20.5871 30.7273L12.2417 41.7318L16.7212 42.5704L24.1667 32.7727L31.5303 42.5909L36.0303 41.7727L27.7257 30.7273L26.9076 26.2068L30.9985 28.2523L39.303 39.3182L41.3485 35.2273L36.4394 28.6818H44.6212L46.6667 24.5909H32.8189" fill="#214441"/>
</g>
<defs>
<clipPath id="clip0_14_101">
<rect width="45" height="45" fill="white" transform="translate(0.666656 0.5)"/>
</clipPath>
</defs>
</svg>
