<svg width="46" height="46" viewBox="0 0 46 46" fill="none" xmlns="http://www.w3.org/2000/svg">
<g clip-path="url(#clip0_14_105)">
<path d="M28.4356 22.5454L32.5674 20.5H46.3333L44.2879 16.4091H36.1674L41.056 9.925L39.031 5.83409L30.7265 16.8182L26.5947 18.8841L27.4129 14.3636L35.7583 3.35909L31.2788 2.54091L23.8333 12.3182L16.4697 2.5L11.9697 3.31818L20.2742 14.3636L21.0924 18.8841L17.3288 17.0023L17.0015 16.8386L8.69695 5.77273L6.65149 9.86363L11.5606 16.4091H3.37877L1.33331 20.5H15.181L19.231 22.5454L15.0992 24.5909H1.33331L3.37877 28.6818H11.4992L6.61059 35.1659L8.63559 39.2568L16.9401 28.2727L21.0719 26.2068L20.2538 30.7273L11.9083 41.7318L16.3879 42.5704L23.8333 32.7727L31.1969 42.5909L35.6969 41.7727L27.3924 30.7273L26.5742 26.2068L30.6651 28.2523L38.9697 39.3182L41.0151 35.2273L36.106 28.6818H44.2879L46.3333 24.5909H32.4856" fill="#4D254A"/>
</g>
<defs>
<clipPath id="clip0_14_105">
<rect width="45" height="45" fill="white" transform="translate(0.333313 0.5)"/>
</clipPath>
</defs>
</svg>
